<svg xmlns="http://www.w3.org/2000/svg" viewBox="0 0 600 26260">
  <defs>
    <style type="text/css">
      @import url('https://rsms.me/inter/inter.css');
      text {
        font-family: Inter, -apple-system, BlinkMacSystemFont, "Segoe UI", Roboto, Helvetica, Arial, sans-serif, "Apple Color Emoji", "Segoe UI Emoji", "Segoe UI Symbol";
        font-size: 40px;
        font-weight: 900;
      }
    </style>
  </defs>
  <rect fill="#202124" x="0" y="0" width="600" height="26260"/>
  <text x="40" y="90" fill="#b5b8b1">Achatgrau</text><text x="40" y="160" fill="#a0ce00">Aliceblau</text><text x="40" y="230" fill="#fdf5e6">Altgold</text><text x="40" y="300" fill="#d36e70">Altrosa</text><text x="40" y="370" fill="#293133">Anthrazitgrau</text><text x="40" y="440" fill="#faebd7">Antikes Weiß</text><text x="40" y="510" fill="#7fffd4">Aquamarinblau</text><text x="40" y="580" fill="#025669">Azurblau</text><text x="40" y="650" fill="#ebbce3">Babyrosa</text><text x="40" y="720" fill="#4e5754">Basaltgrau</text><text x="40" y="790" fill="#c2b078">Beige</text><text x="40" y="860" fill="#79553d">Beigebraun</text><text x="40" y="930" fill="#6d6552">Beigegrau</text><text x="40" y="1000" fill="#c1876b">Beigerot</text><text x="40" y="1070" fill="#686c5e">Betongrau</text><text x="40" y="1140" fill="#755c48">Blassbraun</text><text x="40" y="1210" fill="#eee8aa">Blasse Goldrutenfarbe</text><text x="40" y="1280" fill="#afeeee">Blasses Türkis</text><text x="40" y="1350" fill="#db7093">Blasses Violettrot</text><text x="40" y="1420" fill="#89ac76">Blassgrün</text><text x="40" y="1490" fill="#00524e">Blattgrün</text><text x="40" y="1560" fill="#0000ff">Blau</text><text x="40" y="1630" fill="#474b4e">Blaugrau</text><text x="40" y="1700" fill="#1f3a3d">Blaugrün</text><text x="40" y="1770" fill="#6c4675">Blaulila</text><text x="40" y="1840" fill="#8a2be2">Blauviolett</text><text x="40" y="1910" fill="#cb2821">Blutorange</text><text x="40" y="1980" fill="#fffaf0">Blütenweiß</text><text x="40" y="2050" fill="#641c34">Bordeauxviolett</text><text x="40" y="2120" fill="#a52a2a">Braun</text><text x="40" y="2190" fill="#8a6642">Braunbeige</text><text x="40" y="2260" fill="#464531">Braungrau</text><text x="40" y="2330" fill="#39352a">Braungrün</text><text x="40" y="2400" fill="#25221b">Braunoliv</text><text x="40" y="2470" fill="#781f19">Braunrot</text><text x="40" y="2540" fill="#005a99">Bremerblau</text><text x="40" y="2610" fill="#3e5f8a">Brillantblau</text><text x="40" y="2680" fill="#fff600">Cadmiumgelb</text><text x="40" y="2750" fill="#1b5583">Capriblau</text><text x="40" y="2820" fill="#fffacd">Chiffongelb</text><text x="40" y="2890" fill="#2e3a23">Chromoxidgrün</text><text x="40" y="2960" fill="#0091c6">Coelinblau</text><text x="40" y="3030" fill="#fdf4e3">Cremeweiß</text><text x="40" y="3100" fill="#f5fffa">Cremig Pfefferminz</text><text x="40" y="3170" fill="#ffefd5">Cremiges Papaya</text><text x="40" y="3240" fill="#9d9101">Currygelb</text><text x="40" y="3310" fill="#007eff">Cyanblau</text><text x="40" y="3380" fill="#f3a505">Dahliengelb</text><text x="40" y="3450" fill="#d8bfd8">Distel</text><text x="40" y="3520" fill="#1e90ff">Dodger-Blau</text><text x="40" y="3590" fill="#00008b">Dunkelblau</text><text x="40" y="3660" fill="#a9a9a9">Dunkelgrau</text><text x="40" y="3730" fill="#006400">Dunkelgrün</text><text x="40" y="3800" fill="#8b0000">Dunkelrot</text><text x="40" y="3870" fill="#b8860b">Dunkle Goldrutenfarbe</text><text x="40" y="3940" fill="#e9967a">Dunkle Lachsfarbe</text><text x="40" y="4010" fill="#9932cc">Dunkle Orchideenfarbe</text><text x="40" y="4080" fill="#bdb76b">Dunkles Khaki</text><text x="40" y="4150" fill="#8b008b">Dunkles Magentarot</text><text x="40" y="4220" fill="#556b2f">Dunkles Olivgrün</text><text x="40" y="4290" fill="#ff8c00">Dunkles Orange</text><text x="40" y="4360" fill="#483d8b">Dunkles Schieferblau</text><text x="40" y="4430" fill="#8fbc8f">Dunkles Schiefergrau</text><text x="40" y="4500" fill="#90bd90">Dunkles Seegrün</text><text x="40" y="4570" fill="#00ced1">Dunkles Türkis</text><text x="40" y="4640" fill="#9400d3">Dunkles Violett</text><text x="40" y="4710" fill="#008b8b">Dunkles Zyanblau</text><text x="40" y="4780" fill="#434b4d">Eisengrau</text><text x="40" y="4850" fill="#e1cc4f">Elfenbein</text><text x="40" y="4920" fill="#008080">Entenbraun</text><text x="40" y="4990" fill="#0e294b">Enzianblau</text><text x="40" y="5060" fill="#d53032">Erdbeerrot</text><text x="40" y="5130" fill="#de4c8a">Erikaviolett</text><text x="40" y="5200" fill="#3d642d">Farngrün</text><text x="40" y="5270" fill="#78858b">Fehgrau</text><text x="40" y="5340" fill="#9da1aa">Fenstergrau</text><text x="40" y="5410" fill="#49678d">Fernblau</text><text x="40" y="5480" fill="#af2b1e">Feuerrot</text><text x="40" y="5550" fill="#343b29">Flaschengrün</text><text x="40" y="5620" fill="#e0e0e0">Friedhofsblond</text><text x="40" y="5690" fill="#00ff7f">Frühlingsgrün</text><text x="40" y="5760" fill="#ff00ff">Fuchsie</text><text x="40" y="5830" fill="#dcdcdc">Gainsboro</text><text x="40" y="5900" fill="#f8f8ff">Geisterweiß</text><text x="40" y="5970" fill="#ffff00">Gelb</text><text x="40" y="6040" fill="#d2b48c">Gelbbraun</text><text x="40" y="6110" fill="#8f8b66">Gelbgrau</text><text x="40" y="6180" fill="#57a639">Gelbgrün</text><text x="40" y="6250" fill="#47402e">Gelboliv</text><text x="40" y="6320" fill="#ed760e">Gelborange</text><text x="40" y="6390" fill="#94fb4d">Giftgrün</text><text x="40" y="6460" fill="#d6ae01">Ginstergelb</text><text x="40" y="6530" fill="#ec612b">Glutorange</text><text x="40" y="6600" fill="#ffd700">Gold</text><text x="40" y="6670" fill="#cda434">Goldgelb</text><text x="40" y="6740" fill="#daa520">Goldrute</text><text x="40" y="6810" fill="#2f353b">Granitgrau</text><text x="40" y="6880" fill="#474a51">Graphitgrau</text><text x="40" y="6950" fill="#1c1c1c">Graphitschwarz</text><text x="40" y="7020" fill="#35682d">Grasgrün</text><text x="40" y="7090" fill="#808080">Grau</text><text x="40" y="7160" fill="#8f8f8f">Graualuminium</text><text x="40" y="7230" fill="#9e9764">Graubeige</text><text x="40" y="7300" fill="#26252d">Graublau</text><text x="40" y="7370" fill="#403a3a">Graubraun</text><text x="40" y="7440" fill="#3e3b32">Grauoliv</text><text x="40" y="7510" fill="#e7ebda">Grauweiß</text><text x="40" y="7580" fill="#deb887">Grobes Braun</text><text x="40" y="7650" fill="#008000">Grün</text><text x="40" y="7720" fill="#bebd7f">Grünbeige</text><text x="40" y="7790" fill="#1f3438">Grünblau</text><text x="40" y="7860" fill="#826c34">Grünbraun</text><text x="40" y="7930" fill="#adff2f">Grüngelb</text><text x="40" y="8000" fill="#4d5645">Grüngrau</text><text x="40" y="8070" fill="#add8e6">Hellblau</text><text x="40" y="8140" fill="#ffa07a">Helle Lachsfarbe</text><text x="40" y="8210" fill="#e6d690">Hellelfenbein</text><text x="40" y="8280" fill="#e0ffff">Helles Cyanblau</text><text x="40" y="8350" fill="#fafad2">Helles Goldrutengelb</text><text x="40" y="8420" fill="#87cefa">Helles Himmelblau</text><text x="40" y="8490" fill="#f08080">Helles Korallenrot</text><text x="40" y="8560" fill="#778899">Helles Schiefergrau</text><text x="40" y="8630" fill="#20b2aa">Helles Seegrün</text><text x="40" y="8700" fill="#b0c4de">Helles Stahlblau</text><text x="40" y="8770" fill="#ffffe0">Hellgelb</text><text x="40" y="8840" fill="#d3d3d3">Hellgrau</text><text x="40" y="8910" fill="#90ee90">Hellgrün</text><text x="40" y="8980" fill="#ea899a">Hellrosa</text><text x="40" y="9050" fill="#f75e25">Hellrotorange</text><text x="40" y="9120" fill="#c51d34">Himbeerrot</text><text x="40" y="9190" fill="#2271b3">Himmelblau</text><text x="40" y="9260" fill="#a98307">Honiggelb</text><text x="40" y="9330" fill="#f0fff0">Honigmelone</text><text x="40" y="9400" fill="#4b0082">Indigo</text><text x="40" y="9470" fill="#deb943">Indischgelb</text><text x="40" y="9540" fill="#cd5c5c">Indischrot</text><text x="40" y="9610" fill="#5f9ea0">Kadettblau</text><text x="40" y="9680" fill="#dc143c">Karmesinrot</text><text x="40" y="9750" fill="#a2231d">Karminrot</text><text x="40" y="9820" fill="#633a34">Kastanienbraun</text><text x="40" y="9890" fill="#f0e68c">Khaki</text><text x="40" y="9960" fill="#6a5f31">Khakigrau</text><text x="40" y="10030" fill="#2c5545">Kieferngrün</text><text x="40" y="10100" fill="#b8b799">Kieselgrau</text><text x="40" y="10170" fill="#e43426">Knallrot</text><text x="40" y="10240" fill="#fbea4e">Knatschgelb</text><text x="40" y="10310" fill="#1e213d">Kobaltblau</text><text x="40" y="10380" fill="#1c1b1b">Kohlrabenschwarz</text><text x="40" y="10450" fill="#ff7f50">Koralle</text><text x="40" y="10520" fill="#b32821">Korallenrot</text><text x="40" y="10590" fill="#7069d8">Kornblumenblau</text><text x="40" y="10660" fill="#6f011e">Krapplack</text><text x="40" y="10730" fill="#f1ebe4">Kreideweiß</text><text x="40" y="10800" fill="#8e402a">Kupferbraun</text><text x="40" y="10870" fill="#4169e1">Königsblau</text><text x="40" y="10940" fill="#fa8072">Lachs</text><text x="40" y="11010" fill="#e55137">Lachsorange</text><text x="40" y="11080" fill="#d95030">Lachsrot</text><text x="40" y="11150" fill="#2d572c">Laubgrün</text><text x="40" y="11220" fill="#e6e6fa">Lavendelfarbe</text><text x="40" y="11290" fill="#734222">Lehmbraun</text><text x="40" y="11360" fill="#faf0e6">Leinenfarbe</text><text x="40" y="11430" fill="#ebe8e0">Leinenweiß</text><text x="40" y="11500" fill="#ff69b4">Leuchtendes Rosa</text><text x="40" y="11570" fill="#fefe01">Leuchtgelb</text><text x="40" y="11640" fill="#00bb2d">Leuchtgrün</text><text x="40" y="11710" fill="#ffa420">Leuchthellorange</text><text x="40" y="11780" fill="#fe0000">Leuchthellrot</text><text x="40" y="11850" fill="#ff2301">Leuchtorange</text><text x="40" y="11920" fill="#f80000">Leuchtrot</text><text x="40" y="11990" fill="#3b83bd">Lichtblau</text><text x="40" y="12060" fill="#d7d7d7">Lichtgrau</text><text x="40" y="12130" fill="#84c3be">Lichtgrün</text><text x="40" y="12200" fill="#fe01fe">Magentarot</text><text x="40" y="12270" fill="#4c2f27">Mahagonibraun</text><text x="40" y="12340" fill="#4c9141">Maigrün</text><text x="40" y="12410" fill="#fff8dc">Mais</text><text x="40" y="12480" fill="#e4a010">Maisgelb</text><text x="40" y="12550" fill="#ffebcd">Mandelweiß</text><text x="40" y="12620" fill="#000080">Marineblau</text><text x="40" y="12690" fill="#696969">Mattes Grau</text><text x="40" y="12760" fill="#646b63">Mausgrau</text><text x="40" y="12830" fill="#f4a900">Melonengelb</text><text x="40" y="12900" fill="#497e76">Minttürkis</text><text x="40" y="12970" fill="#20603d">Minzgrün</text><text x="40" y="13040" fill="#0000cc">Mittelblau</text><text x="40" y="13110" fill="#fdfd02">Mittelgelb</text><text x="40" y="13180" fill="#20a040">Mittelgrün</text><text x="40" y="13250" fill="#ff0040">Mittelrot</text><text x="40" y="13320" fill="#191970">Mitternachtsblau</text><text x="40" y="13390" fill="#ba55d3">Mittlere Orchideenfarbe</text><text x="40" y="13460" fill="#66cdaa">Mittleres Aquamarinblau</text><text x="40" y="13530" fill="#00fa9a">Mittleres Frühlingsgrün</text><text x="40" y="13600" fill="#7b68ee">Mittleres Schieferblau</text><text x="40" y="13670" fill="#3cb371">Mittleres Seegrün</text><text x="40" y="13740" fill="#48d1cc">Mittleres Türkis</text><text x="40" y="13810" fill="#9370db">Mittleres Violett</text><text x="40" y="13880" fill="#c71585">Mittleres Violettrot</text><text x="40" y="13950" fill="#6c7059">Moosgrau</text><text x="40" y="14020" fill="#2f4538">Moosgrün</text><text x="40" y="14090" fill="#fff5ee">Muschel</text><text x="40" y="14160" fill="#252850">Nachtblau</text><text x="40" y="14230" fill="#dc9d00">Narzissengelb</text><text x="40" y="14300" fill="#ffdead">Navajoweiß</text><text x="40" y="14370" fill="#a5a2a1">Nebel im Novermber</text><text x="40" y="14440" fill="#5b3a29">Nussbraun</text><text x="40" y="14510" fill="#dba621">Ocker</text><text x="40" y="14580" fill="#955f20">Ockerbraun</text><text x="40" y="14650" fill="#aea04b">Ockergelb</text><text x="40" y="14720" fill="#6f4f28">Olivbraun</text><text x="40" y="14790" fill="#6b8e23">Olivfarbiges Graubraun</text><text x="40" y="14860" fill="#999950">Olivgelb</text><text x="40" y="14930" fill="#7e7b52">Olivgrau</text><text x="40" y="15000" fill="#424632">Olivgrün</text><text x="40" y="15070" fill="#015d52">Opalgrün</text><text x="40" y="15140" fill="#ffa500">Orange</text><text x="40" y="15210" fill="#a65e2e">Orangebraun</text><text x="40" y="15280" fill="#ff4500">Orangenrot</text><text x="40" y="15350" fill="#da70d6">Orchidee</text><text x="40" y="15420" fill="#b32428">Orientrot</text><text x="40" y="15490" fill="#642424">Oxidrot</text><text x="40" y="15560" fill="#1d334a">Ozeanblau</text><text x="40" y="15630" fill="#d8d8d8">Papyrusweiß</text><text x="40" y="15700" fill="#4040ff">Pariserblau</text><text x="40" y="15770" fill="#5d9b9b">Pastellblau</text><text x="40" y="15840" fill="#efa94a">Pastellgelb</text><text x="40" y="15910" fill="#ff7514">Pastellorange</text><text x="40" y="15980" fill="#7fb5b5">Pastelltürkis</text><text x="40" y="16050" fill="#a18594">Pastellviolett</text><text x="40" y="16120" fill="#316650">Patinagrün</text><text x="40" y="16190" fill="#293c42">Paynesgrau</text><text x="40" y="16260" fill="#202128">Pechschwarz</text><text x="40" y="16330" fill="#6a5d4d">Perlbeige</text><text x="40" y="16400" fill="#6c6874">Perlbrombeer</text><text x="40" y="16470" fill="#828282">Perldunkelgrau</text><text x="40" y="16540" fill="#2a6478">Perlenzian</text><text x="40" y="16610" fill="#705335">Perlgold</text><text x="40" y="16680" fill="#1c542d">Perlgrün</text><text x="40" y="16750" fill="#9c9c9c">Perlhellgrau</text><text x="40" y="16820" fill="#763c28">Perlkupfer</text><text x="40" y="16890" fill="#898176">Perlmausgrau</text><text x="40" y="16960" fill="#102c54">Perlnachtblau</text><text x="40" y="17030" fill="#193737">Perlopalgrün</text><text x="40" y="17100" fill="#c35831">Perlorange</text><text x="40" y="17170" fill="#b44c43">Perlrosa</text><text x="40" y="17240" fill="#721422">Perlrubinrot</text><text x="40" y="17310" fill="#8673a1">Perlviolett</text><text x="40" y="17380" fill="#eae6ca">Perlweiß</text><text x="40" y="17450" fill="#cd853f">Peru</text><text x="40" y="17520" fill="#ffdab9">Pfirsich</text><text x="40" y="17590" fill="#dda0dd">Pflaume</text><text x="40" y="17660" fill="#123524">Phthalogrün</text><text x="40" y="17730" fill="#7f7679">Platingrau</text><text x="40" y="17800" fill="#c5c2bf">Poesie der Stille</text><text x="40" y="17870" fill="#003153">Preußischblau</text><text x="40" y="17940" fill="#75151e">Purpurrot</text><text x="40" y="18010" fill="#4a192c">Purpurviolett</text><text x="40" y="18080" fill="#6c6960">Quarzgrau</text><text x="40" y="18150" fill="#f2ea4f">Quietschgelb</text><text x="40" y="18220" fill="#141313">Rabenschwarz</text><text x="40" y="18290" fill="#f3da0b">Rapsgelb</text><text x="40" y="18360" fill="#f5f5f5">Rauchiges Weiß</text><text x="40" y="18430" fill="#59351f">Rehbraun</text><text x="40" y="18500" fill="#008f39">Reingrün</text><text x="40" y="18570" fill="#f44611">Reinorange</text><text x="40" y="18640" fill="#cb3234">Reinrot</text><text x="40" y="18710" fill="#ffffff">Reinweiß</text><text x="40" y="18780" fill="#587246">Resedagrün</text><text x="40" y="18850" fill="#ffc0cb">Rosa</text><text x="40" y="18920" fill="#fff0f5">Rosige Lavenderfarbe</text><text x="40" y="18990" fill="#bc8f8f">Rosiges Braun</text><text x="40" y="19060" fill="#e63244">Rosé</text><text x="40" y="19130" fill="#ff0000">Rot</text><text x="40" y="19200" fill="#592321">Rotbraun</text><text x="40" y="19270" fill="#6d3f5b">Rotlila</text><text x="40" y="19340" fill="#c93c20">Rotorange</text><text x="40" y="19410" fill="#922b3e">Rotviolett</text><text x="40" y="19480" fill="#9b111e">Rubinrot</text><text x="40" y="19550" fill="#f5d033">Safrangelb</text><text x="40" y="19620" fill="#f4a460">Sandbraun</text><text x="40" y="19690" fill="#c6a664">Sandgelb</text><text x="40" y="19760" fill="#1d1e33">Saphirblau</text><text x="40" y="19830" fill="#8b4513">Sattelbraun</text><text x="40" y="19900" fill="#ff2400">Scharlachrot</text><text x="40" y="19970" fill="#6a5acd">Schieferblau</text><text x="40" y="20040" fill="#434750">Schiefergrau</text><text x="40" y="20110" fill="#6c7156">Schilfgrün</text><text x="40" y="20180" fill="#f2f6f7">Schneeweiß</text><text x="40" y="20250" fill="#3d261b">Schokobraun</text><text x="40" y="20320" fill="#d2691e">Schokolade</text><text x="40" y="20390" fill="#45322e">Schokoladen-braun</text><text x="40" y="20460" fill="#000000">Schwarz</text><text x="40" y="20530" fill="#18171c">Schwarzblau</text><text x="40" y="20600" fill="#212121">Schwarzbraun</text><text x="40" y="20670" fill="#23282b">Schwarzgrau</text><text x="40" y="20740" fill="#343e40">Schwarzgrün</text><text x="40" y="20810" fill="#3b3c36">Schwarzoliv</text><text x="40" y="20880" fill="#412227">Schwarzrot</text><text x="40" y="20950" fill="#edff21">Schwefelgelb</text><text x="40" y="21020" fill="#f8dce5">Schweinchenrosa</text><text x="40" y="21090" fill="#2e8b57">Seegrün</text><text x="40" y="21160" fill="#cac4b0">Seidengrau</text><text x="40" y="21230" fill="#704214">Sepia</text><text x="40" y="21300" fill="#382c1e">Sepiabraun</text><text x="40" y="21370" fill="#1e2460">Signalblau</text><text x="40" y="21440" fill="#6c3b2a">Signalbraun</text><text x="40" y="21510" fill="#e5be01">Signalgelb</text><text x="40" y="21580" fill="#969992">Signalgrau</text><text x="40" y="21650" fill="#317f43">Signalgrün</text><text x="40" y="21720" fill="#d84b20">Signalorange</text><text x="40" y="21790" fill="#a52019">Signalrot</text><text x="40" y="21860" fill="#282828">Signalschwarz</text><text x="40" y="21930" fill="#924e7d">Signalviolett</text><text x="40" y="22000" fill="#f4f4f4">Signalweiß</text><text x="40" y="22070" fill="#c0c0c0">Silber</text><text x="40" y="22140" fill="#8a9597">Silbergrau</text><text x="40" y="22210" fill="#287233">Smaragdgrün</text><text x="40" y="22280" fill="#f39f18">Sonnengelb</text><text x="40" y="22350" fill="#231a24">Stahlblau</text><text x="40" y="22420" fill="#7d7f7d">Staubgrau</text><text x="40" y="22490" fill="#8b8c7a">Steingrau</text><text x="40" y="22560" fill="#d4c5b2">Straßenköterblond</text><text x="40" y="22630" fill="#f7e780">Strohblond</text><text x="40" y="22700" fill="#31372b">Tannengrün</text><text x="40" y="22770" fill="#606e8c">Taubenblau</text><text x="40" y="22840" fill="#909090">Telegrau 1</text><text x="40" y="22910" fill="#82898f">Telegrau 2</text><text x="40" y="22980" fill="#d0d0d0">Telegrau 4</text><text x="40" y="23050" fill="#cf3476">Telemagenta</text><text x="40" y="23120" fill="#4e3b31">Terrabraun</text><text x="40" y="23190" fill="#00bfff">Tiefes Himmelblau</text><text x="40" y="23260" fill="#ec7c26">Tieforange</text><text x="40" y="23330" fill="#ff1493">Tiefrosa</text><text x="40" y="23400" fill="#0a0a0a">Tiefschwarz</text><text x="40" y="23470" fill="#eae1d7">Tochter der Antike</text><text x="40" y="23540" fill="#ffe4c4">Tomatencreme</text><text x="40" y="23610" fill="#a12312">Tomatenrot</text><text x="40" y="23680" fill="#00ffff">Türkis</text><text x="40" y="23750" fill="#3f888f">Türkisblau</text><text x="40" y="23820" fill="#1e5945">Türkisgrün</text><text x="40" y="23890" fill="#20214f">Ultramarinblau</text><text x="40" y="23960" fill="#635147">Umbra</text><text x="40" y="24030" fill="#332f2c">Umbragrau</text><text x="40" y="24100" fill="#d57453">Venezianischrot</text><text x="40" y="24170" fill="#1e1e1e">Verkehrs-schwarz</text><text x="40" y="24240" fill="#063971">Verkehrsblau</text><text x="40" y="24310" fill="#fad201">Verkehrsgelb</text><text x="40" y="24380" fill="#8d948d">Verkehrsgrau A</text><text x="40" y="24450" fill="#4e5452">Verkehrsgrau B</text><text x="40" y="24520" fill="#308446">Verkehrsgrün</text><text x="40" y="24590" fill="#f54021">Verkehrsorange</text><text x="40" y="24660" fill="#a03472">Verkehrspurpur</text><text x="40" y="24730" fill="#cc0605">Verkehrsrot</text><text x="40" y="24800" fill="#f6f6f6">Verkehrsweiß</text><text x="40" y="24870" fill="#ddcebf">Vers in Pastell</text><text x="40" y="24940" fill="#a146ff">Violett</text><text x="40" y="25010" fill="#354d73">Violettblau</text><text x="40" y="25080" fill="#228b22">Waldgrün</text><text x="40" y="25150" fill="#256d7b">Wasserblau</text><text x="40" y="25220" fill="#5e2129">Weinrot</text><text x="40" y="25290" fill="#f5deb3">Weizen</text><text x="40" y="25360" fill="#fefefe">Weiß</text><text x="40" y="25430" fill="#a5a5a5">Weißaluminium</text><text x="40" y="25500" fill="#bdecb6">Weißgrün</text><text x="40" y="25570" fill="#c3bcb0">Zauber der Wüste</text><text x="40" y="25640" fill="#4c514a">Zeltgrau</text><text x="40" y="25710" fill="#7d8471">Zementgrau</text><text x="40" y="25780" fill="#b22222">Ziegelfarbe</text><text x="40" y="25850" fill="#f8f32b">Zinkgelb</text><text x="40" y="25920" fill="#fe0101">Zinnoberrot</text><text x="40" y="25990" fill="#c7b446">Zitronengelb</text><text x="40" y="26060" fill="#00ff00">Zitronengrün</text><text x="40" y="26130" fill="#01fefe">Zyanblau</text><text x="40" y="26200" fill="#0f05a0">Züriblau</text>
</svg>